<svg width="14" height="16" viewBox="0 0 14 16" fill="none" xmlns="http://www.w3.org/2000/svg">
<rect width="14" height="16" fill="#E5E5E5"/>
<g id="Home" clip-path="url(#clip0_0_1)">
<rect width="1440" height="1024" transform="translate(-303 -478)" fill="white"/>
<rect id="BG" x="-303" y="-478" width="1440" height="1024" fill="#F9F9F9"/>
<g id="Product Grid">
<g id="Product">
<g id="Container" filter="url(#filter0_d_0_1)">
<rect x="-56" y="-261" width="217.562" height="285" rx="8" fill="white"/>
</g>
<g id="Comprar">
<path id="Button" d="M-56 -8H162V15.9074C162 20.3257 158.418 23.9074 154 23.9074H-48C-52.4183 23.9074 -56 20.3257 -56 15.9074V-8Z" fill="#0F52BA"/>
<g id="Group 2">
<g id="shopping-bag">
<path id="Path" opacity="0.737212" fill-rule="evenodd" clip-rule="evenodd" d="M3 1L1 3.7V13.15C1 13.8956 1.59695 14.5 2.33333 14.5H11.6667C12.403 14.5 13 13.8956 13 13.15V3.7L11 1H3Z" stroke="white" stroke-width="2" stroke-linecap="round" stroke-linejoin="round"/>
<path id="Path_2" opacity="0.737212" d="M1 4.375H13" stroke="white" stroke-width="2" stroke-linecap="round" stroke-linejoin="round"/>
<path id="Path_3" opacity="0.737212" d="M10 7C10 8.24264 8.82475 9.25 7.375 9.25C5.92525 9.25 4.75 8.24264 4.75 7" stroke="white" stroke-width="2" stroke-linecap="round" stroke-linejoin="round"/>
</g>
</g>
</g>
</g>
</g>
</g>
<defs>
<filter id="filter0_d_0_1" x="-64" y="-267" width="233.562" height="301" filterUnits="userSpaceOnUse" color-interpolation-filters="sRGB">
<feFlood flood-opacity="0" result="BackgroundImageFix"/>
<feColorMatrix in="SourceAlpha" type="matrix" values="0 0 0 0 0 0 0 0 0 0 0 0 0 0 0 0 0 0 127 0" result="hardAlpha"/>
<feOffset dy="2"/>
<feGaussianBlur stdDeviation="4"/>
<feColorMatrix type="matrix" values="0 0 0 0 0 0 0 0 0 0 0 0 0 0 0 0 0 0 0.135216 0"/>
<feBlend mode="normal" in2="BackgroundImageFix" result="effect1_dropShadow_0_1"/>
<feBlend mode="normal" in="SourceGraphic" in2="effect1_dropShadow_0_1" result="shape"/>
</filter>
<clipPath id="clip0_0_1">
<rect width="1440" height="1024" fill="white" transform="translate(-303 -478)"/>
</clipPath>
</defs>
</svg>
